<svg xmlns="http://www.w3.org/2000/svg" version="1.1" xmlns:xlink="http://www.w3.org/1999/xlink" xmlns:svgjs="http://svgjs.dev/svgjs" viewBox="0 0 800 800" opacity="1" width="800" height="800"><g stroke-width="0.5" stroke="#0d0d12" fill="none"><rect width="200" height="200" x="0" y="0" opacity="0.15"></rect><circle r="3.75" cx="0" cy="0" fill="#0d0d12" stroke="none"></circle><rect width="200" height="200" x="200" y="0" opacity="0.15"></rect><circle r="3.75" cx="200" cy="0" fill="#0d0d12" stroke="none"></circle><rect width="200" height="200" x="400" y="0" opacity="0.15"></rect><circle r="3.75" cx="400" cy="0" fill="#0d0d12" stroke="none"></circle><rect width="200" height="200" x="600" y="0" opacity="0.15"></rect><circle r="3.75" cx="600" cy="0" fill="#0d0d12" stroke="none"></circle><rect width="200" height="200" x="800" y="0" opacity="0.15"></rect><circle r="3.75" cx="800" cy="0" fill="#0d0d12" stroke="none"></circle><rect width="200" height="200" x="0" y="200" opacity="0.15"></rect><circle r="3.75" cx="0" cy="200" fill="#0d0d12" stroke="none"></circle><rect width="200" height="200" x="200" y="200" opacity="0.15"></rect><circle r="3.75" cx="200" cy="200" fill="#0d0d12" stroke="none"></circle><rect width="200" height="200" x="400" y="200" opacity="0.15"></rect><circle r="3.75" cx="400" cy="200" fill="#0d0d12" stroke="none"></circle><rect width="200" height="200" x="600" y="200" opacity="0.15"></rect><circle r="3.75" cx="600" cy="200" fill="#0d0d12" stroke="none"></circle><rect width="200" height="200" x="800" y="200" opacity="0.15"></rect><circle r="3.75" cx="800" cy="200" fill="#0d0d12" stroke="none"></circle><rect width="200" height="200" x="0" y="400" opacity="0.15"></rect><circle r="3.75" cx="0" cy="400" fill="#0d0d12" stroke="none"></circle><rect width="200" height="200" x="200" y="400" opacity="0.15"></rect><circle r="3.75" cx="200" cy="400" fill="#0d0d12" stroke="none"></circle><rect width="200" height="200" x="400" y="400" opacity="0.15"></rect><circle r="3.75" cx="400" cy="400" fill="#0d0d12" stroke="none"></circle><rect width="200" height="200" x="600" y="400" opacity="0.15"></rect><circle r="3.75" cx="600" cy="400" fill="#0d0d12" stroke="none"></circle><rect width="200" height="200" x="800" y="400" opacity="0.15"></rect><circle r="3.75" cx="800" cy="400" fill="#0d0d12" stroke="none"></circle><rect width="200" height="200" x="0" y="600" opacity="0.15"></rect><circle r="3.75" cx="0" cy="600" fill="#0d0d12" stroke="none"></circle><rect width="200" height="200" x="200" y="600" opacity="0.15"></rect><circle r="3.75" cx="200" cy="600" fill="#0d0d12" stroke="none"></circle><rect width="200" height="200" x="400" y="600" opacity="0.15"></rect><circle r="3.75" cx="400" cy="600" fill="#0d0d12" stroke="none"></circle><rect width="200" height="200" x="600" y="600" opacity="0.15"></rect><circle r="3.75" cx="600" cy="600" fill="#0d0d12" stroke="none"></circle><rect width="200" height="200" x="800" y="600" opacity="0.15"></rect><circle r="3.75" cx="800" cy="600" fill="#0d0d12" stroke="none"></circle><rect width="200" height="200" x="0" y="800" opacity="0.15"></rect><circle r="3.75" cx="0" cy="800" fill="#0d0d12" stroke="none"></circle><rect width="200" height="200" x="200" y="800" opacity="0.15"></rect><circle r="3.75" cx="200" cy="800" fill="#0d0d12" stroke="none"></circle><rect width="200" height="200" x="400" y="800" opacity="0.15"></rect><circle r="3.75" cx="400" cy="800" fill="#0d0d12" stroke="none"></circle><rect width="200" height="200" x="600" y="800" opacity="0.15"></rect><circle r="3.75" cx="600" cy="800" fill="#0d0d12" stroke="none"></circle><rect width="200" height="200" x="800" y="800" opacity="0.15"></rect><circle r="3.75" cx="800" cy="800" fill="#0d0d12" stroke="none"></circle></g></svg>